<?xml version="1.0" encoding="UTF-8" standalone="no"?>
<!-- Created with Inkscape (http://www.inkscape.org/) -->

<svg
   xmlns:dc="http://purl.org/dc/elements/1.1/"
   xmlns:cc="http://creativecommons.org/ns#"
   xmlns:rdf="http://www.w3.org/1999/02/22-rdf-syntax-ns#"
   xmlns:svg="http://www.w3.org/2000/svg"
   xmlns="http://www.w3.org/2000/svg"
   xmlns:sodipodi="http://sodipodi.sourceforge.net/DTD/sodipodi-0.dtd"
   xmlns:inkscape="http://www.inkscape.org/namespaces/inkscape"
   width="210mm"
   height="297mm"
   viewBox="0 0 210 297"
   version="1.1"
   id="svg8"
   inkscape:version="0.92.2 5c3e80d, 2017-08-06"
   sodipodi:docname="alpha.svg">
  <defs
     id="defs2" />
  <sodipodi:namedview
     id="base"
     pagecolor="#ffffff"
     bordercolor="#666666"
     borderopacity="1.0"
     inkscape:pageopacity="0.0"
     inkscape:pageshadow="2"
     inkscape:zoom="1.979899"
     inkscape:cx="127.51955"
     inkscape:cy="142.2056"
     inkscape:document-units="mm"
     inkscape:current-layer="layer1"
     showgrid="false"
     inkscape:window-width="1676"
     inkscape:window-height="1005"
     inkscape:window-x="4"
     inkscape:window-y="1"
     inkscape:window-maximized="1" />
  <metadata
     id="metadata5">
    <rdf:RDF>
      <cc:Work
         rdf:about="">
        <dc:format>image/svg+xml</dc:format>
        <dc:type
           rdf:resource="http://purl.org/dc/dcmitype/StillImage" />
        <dc:title />
      </cc:Work>
    </rdf:RDF>
  </metadata>
  <g
     inkscape:label="Layer 1"
     inkscape:groupmode="layer"
     id="layer1">
    <path
       style="fill:none;stroke:#000000;stroke-width:0.03746313;stroke-miterlimit:4;stroke-dasharray:none;stroke-opacity:1"
       d="m 35.562175,277.69791 c 1.629907,-0.19489 2.7034,-0.52725 3.787496,-1.17261 1.118328,-0.6657 2.132902,-1.67511 2.779875,-2.76572 0.67337,-1.1351 1.01433,-2.23799 1.193216,-3.85971 0.06385,-0.57888 0.06767,-1.21054 0.06767,-11.15668 0,-9.94614 -0.0037,-10.57781 -0.06767,-11.15669 -0.155118,-1.40626 -0.413296,-2.35053 -0.916976,-3.3538 -1.021978,-2.03569 -2.89684,-3.54989 -5.119405,-4.13464 -0.525431,-0.13832 -1.045218,-0.22941 -1.761395,-0.30891 -0.580371,-0.0643 -1.184855,-0.0682 -11.156685,-0.0682 -9.971831,0 -10.576316,0.003 -11.156686,0.0682 -2.307326,0.25614 -3.8828549,0.93845 -5.2935829,2.2925 -1.388668,1.33288 -2.185239,2.99541 -2.459342,5.13295 -0.122774,0.95733 -0.130791,1.66477 -0.130791,11.52859 0,9.86381 0.0079,10.57127 0.130791,11.52859 0.269992,2.10547 1.003475,3.66743 2.358538,5.02248 1.213783,1.21378 2.6178049,1.93751 4.3905469,2.26317 0.401062,0.0736 1.378805,0.18063 1.840591,0.20134 0.143169,0.006 4.921028,0.009 10.617446,0.007 9.57999,-0.003 10.397584,-0.009 10.896363,-0.0685 z"
       id="path858"
       inkscape:connector-curvature="0" />
    <g
       aria-label="ð›‚"
       style="font-style:normal;font-variant:normal;font-weight:normal;font-stretch:normal;font-size:26.45833397px;line-height:125%;font-family:sans-serif;-inkscape-font-specification:'sans-serif, Normal';font-variant-ligatures:normal;font-variant-caps:normal;font-variant-numeric:normal;font-feature-settings:normal;text-align:start;letter-spacing:0px;word-spacing:0px;writing-mode:lr-tb;text-anchor:start;fill:#323232;fill-opacity:1;stroke:none;stroke-width:0.025;stroke-linecap:butt;stroke-linejoin:miter;stroke-miterlimit:4;stroke-dasharray:none;stroke-opacity:1"
       id="text864"
       transform="matrix(1.4985253,0,0,1.4985253,-27.278129,-130.47284)">
      <path
         d="m 42.643891,253.36512 h -4.074583 l -0.767292,2.88395 h -0.02646 c -0.926042,-2.14312 -2.487084,-3.20145 -4.736042,-3.20145 -1.666875,0 -3.042709,0.52916 -4.153959,1.5875 -1.27,1.21708 -1.931458,2.88395 -1.931458,4.9477 0,1.74626 0.47625,3.17501 1.42875,4.33917 1.084792,1.32292 2.513542,2.01084 4.28625,2.01084 1.852084,0 3.307292,-0.68792 4.392084,-2.09021 0.635,1.34937 1.561041,2.03729 2.778125,2.03729 0.873125,0 1.534583,-0.42333 2.037291,-1.27 0.47625,-0.82021 0.740834,-1.85208 0.740834,-3.12208 h -0.661459 c -0.07937,1.34937 -0.449791,2.01083 -1.11125,2.01083 -0.211666,0 -0.396875,-0.0529 -0.529166,-0.21167 -0.238125,-0.26458 -0.529167,-0.89958 -0.846667,-1.85208 -0.15875,-0.47625 -0.238125,-0.79375 -0.238125,-0.92604 z m -6.799792,6.95854 c -0.15875,1.00542 -0.47625,2.01083 -0.926041,2.93687 -0.608542,1.24355 -1.27,1.85209 -1.957917,1.85209 -0.714375,0 -1.243542,-0.34396 -1.561042,-1.08479 -0.370417,-0.84667 -0.555625,-2.38125 -0.555625,-4.63021 0,-1.905 0.132292,-3.28084 0.396875,-4.07459 0.3175,-0.97896 0.9525,-1.45521 1.878542,-1.45521 0.740833,0 1.375833,0.7673 1.905,2.30188 0.47625,1.37583 0.767292,2.77812 0.820208,4.15396 z"
         style="font-style:normal;font-variant:normal;font-weight:normal;font-stretch:normal;font-size:26.45833397px;font-family:sans-serif;-inkscape-font-specification:'sans-serif, Normal';font-variant-ligatures:normal;font-variant-caps:normal;font-variant-numeric:normal;font-feature-settings:normal;text-align:start;writing-mode:lr-tb;text-anchor:start;fill:#323232;fill-opacity:1;stroke-width:0.025;stroke-miterlimit:4;stroke-dasharray:none"
         id="path866"
         inkscape:connector-curvature="0" />
    </g>
    <path
       inkscape:connector-curvature="0"
       id="path1065"
       d="m 92.685948,283.54869 c 2.17321,-0.25986 3.604533,-0.70301 5.049991,-1.56348 1.49111,-0.88761 2.843871,-2.23348 3.706501,-3.68763 0.89783,-1.51347 1.35244,-2.98399 1.59096,-5.14628 0.0851,-0.77184 0.0902,-1.61405 0.0902,-14.87558 0,-13.26151 -0.005,-14.10374 -0.0902,-14.87558 -0.20683,-1.87501 -0.55106,-3.13404 -1.22264,-4.47174 -1.36263,-2.71425 -3.862451,-4.73318 -6.82587,-5.51285 -0.700575,-0.18442 -1.393625,-0.30588 -2.348527,-0.41188 -0.773828,-0.0857 -1.579807,-0.0909 -14.875581,-0.0909 -13.295774,0 -14.101755,0.004 -14.875581,0.0909 -3.076435,0.34152 -5.177139,1.25127 -7.05811,3.05667 -1.851558,1.77717 -2.913653,3.99387 -3.279123,6.84393 -0.163699,1.27644 -0.174389,2.21969 -0.174389,15.37145 0,13.15176 0.01059,14.09503 0.174389,15.37145 0.35999,2.8073 1.337967,4.88991 3.144717,6.69665 1.618377,1.61837 3.490407,2.58334 5.854063,3.01755 0.53475,0.0981 1.838407,0.24085 2.454121,0.26846 0.190892,0.008 6.561371,0.012 14.156595,0.01 12.773319,-0.004 13.863445,-0.012 14.528484,-0.0913 z"
       style="fill:none;stroke:#000000;stroke-width:0.04995085;stroke-miterlimit:4;stroke-dasharray:none;stroke-opacity:1" />
    <g
       id="g1069"
       style="font-style:normal;font-variant:normal;font-weight:normal;font-stretch:normal;font-size:26.45833397px;line-height:125%;font-family:sans-serif;-inkscape-font-specification:'sans-serif, Normal';font-variant-ligatures:normal;font-variant-caps:normal;font-variant-numeric:normal;font-feature-settings:normal;text-align:start;letter-spacing:0px;word-spacing:0px;writing-mode:lr-tb;text-anchor:start;fill:#323232;fill-opacity:1;stroke:none;stroke-width:0.025;stroke-linecap:butt;stroke-linejoin:miter;stroke-miterlimit:4;stroke-dasharray:none;stroke-opacity:1"
       aria-label="ð›‚"
       transform="matrix(1.9980337,0,0,1.9980337,8.898877,-260.67897)">
      <path
         id="path1067"
         style="font-style:normal;font-variant:normal;font-weight:normal;font-stretch:normal;font-size:26.45833397px;font-family:sans-serif;-inkscape-font-specification:'sans-serif, Normal';font-variant-ligatures:normal;font-variant-caps:normal;font-variant-numeric:normal;font-feature-settings:normal;text-align:start;writing-mode:lr-tb;text-anchor:start;fill:#323232;fill-opacity:1;stroke-width:0.025;stroke-miterlimit:4;stroke-dasharray:none"
         d="m 42.643891,253.36512 h -4.074583 l -0.767292,2.88395 h -0.02646 c -0.926042,-2.14312 -2.487084,-3.20145 -4.736042,-3.20145 -1.666875,0 -3.042709,0.52916 -4.153959,1.5875 -1.27,1.21708 -1.931458,2.88395 -1.931458,4.9477 0,1.74626 0.47625,3.17501 1.42875,4.33917 1.084792,1.32292 2.513542,2.01084 4.28625,2.01084 1.852084,0 3.307292,-0.68792 4.392084,-2.09021 0.635,1.34937 1.561041,2.03729 2.778125,2.03729 0.873125,0 1.534583,-0.42333 2.037291,-1.27 0.47625,-0.82021 0.740834,-1.85208 0.740834,-3.12208 h -0.661459 c -0.07937,1.34937 -0.449791,2.01083 -1.11125,2.01083 -0.211666,0 -0.396875,-0.0529 -0.529166,-0.21167 -0.238125,-0.26458 -0.529167,-0.89958 -0.846667,-1.85208 -0.15875,-0.47625 -0.238125,-0.79375 -0.238125,-0.92604 z m -6.799792,6.95854 c -0.15875,1.00542 -0.47625,2.01083 -0.926041,2.93687 -0.608542,1.24355 -1.27,1.85209 -1.957917,1.85209 -0.714375,0 -1.243542,-0.34396 -1.561042,-1.08479 -0.370417,-0.84667 -0.555625,-2.38125 -0.555625,-4.63021 0,-1.905 0.132292,-3.28084 0.396875,-4.07459 0.3175,-0.97896 0.9525,-1.45521 1.878542,-1.45521 0.740833,0 1.375833,0.7673 1.905,2.30188 0.47625,1.37583 0.767292,2.77812 0.820208,4.15396 z"
         inkscape:connector-curvature="0" />
    </g>
  </g>
</svg>
